PathFileType	4	(X/Y/Z)	Kaydara	
DataRate	CameraRate	NumFrames	NumMarkers	Units	OrigDataRate	OrigDataStartFrame	OrigNumFrames	
120.00	120.00	4	72	mm	120.00	101	268	
Frame#	Time	Hips			RightUpLeg			RightLeg			RightFoot			RightFoot_End			LeftUpLeg			LeftLeg			LeftFoot			LeftFoot_End			Spine			Spine1			Spine2			Spine3			Neck			Head			Head_End			RightShoulder			RightArm			RightForeArm			RightHand			RightHandThumb1			RightHandThumb2			RightHandThumb3			RightHandThumb3_End			RightInHandIndex			RightHandIndex1			RightHandIndex2			RightHandIndex3			RightHandIndex3_End			RightInHandMiddle			RightHandMiddle1			RightHandMiddle2			RightHandMiddle3			RightHandMiddle3_End			RightInHandRing			RightHandRing1			RightHandRing2			RightHandRing3			RightHandRing3_End			RightInHandPinky			RightHandPinky1			RightHandPinky2			RightHandPinky3			RightHandPinky3_End			LeftShoulder			LeftArm			LeftForeArm			LeftHand			LeftHandThumb1			LeftHandThumb2			LeftHandThumb3			LeftHandThumb3_End			LeftInHandIndex			LeftHandIndex1			LeftHandIndex2			LeftHandIndex3			LeftHandIndex3_End			LeftInHandMiddle			LeftHandMiddle1			LeftHandMiddle2			LeftHandMiddle3			LeftHandMiddle3_End			LeftInHandRing			LeftHandRing1			LeftHandRing2			LeftHandRing3			LeftHandRing3_End			LeftInHandPinky			LeftHandPinky1			LeftHandPinky2			LeftHandPinky3			LeftHandPinky3_End			
		X1	Y1	Z1	X2	Y2	Z2	X3	Y3	Z3	X4	Y4	Z4	X5	Y5	Z5	X6	Y6	Z6	X7	Y7	Z7	X8	Y8	Z8	X9	Y9	Z9	X10	Y10	Z10	X11	Y11	Z11	X12	Y12	Z12	X13	Y13	Z13	X14	Y14	Z14	X15	Y15	Z15	X16	Y16	Z16	X17	Y17	Z17	X18	Y18	Z18	X19	Y19	Z19	X20	Y20	Z20	X21	Y21	Z21	X22	Y22	Z22	X23	Y23	Z23	X24	Y24	Z24	X25	Y25	Z25	X26	Y26	Z26	X27	Y27	Z27	X28	Y28	Z28	X29	Y29	Z29	X30	Y30	Z30	X31	Y31	Z31	X32	Y32	Z32	X33	Y33	Z33	X34	Y34	Z34	X35	Y35	Z35	X36	Y36	Z36	X37	Y37	Z37	X38	Y38	Z38	X39	Y39	Z39	X40	Y40	Z40	X41	Y41	Z41	X42	Y42	Z42	X43	Y43	Z43	X44	Y44	Z44	X45	Y45	Z45	X46	Y46	Z46	X47	Y47	Z47	X48	Y48	Z48	X49	Y49	Z49	X50	Y50	Z50	X51	Y51	Z51	X52	Y52	Z52	X53	Y53	Z53	X54	Y54	Z54	X55	Y55	Z55	X56	Y56	Z56	X57	Y57	Z57	X58	Y58	Z58	X59	Y59	Z59	X60	Y60	Z60	X61	Y61	Z61	X62	Y62	Z62	X63	Y63	Z63	X64	Y64	Z64	X65	Y65	Z65	X66	Y66	Z66	X67	Y67	Z67	X68	Y68	Z68	X69	Y69	Z69	X70	Y70	Z70	X71	Y71	Z71	X72	Y72	Z72	

101	0.833	7446.805	859.65103	-201.189	7547.143941199556	866.9148998023695	-218.69965845215862	7402.997529035317	472.87951365685365	-252.38225769908362	7437.985624466989	44.28825188764989	-281.2947003709568	7353.60855198582	-29.767715902745124	-117.32293429464187	7355.36571458998	823.8591114609761	-170.84889583975624	7233.896853028547	427.4600303963317	-111.3406495207192	7181.891615344135	66.29098007720015	97.81841045245939	7221.746892474765	38.55259264635928	283.2433184857853	7401.784035334351	983.8011183412235	-256.2942451454777	7351.0231968520275	1052.2068424987267	-303.24825876747764	7292.765785993428	1118.4204941633238	-353.47155674370026	7229.045364834079	1172.3130879205469	-404.17207643475194	7160.25649845554	1230.3553623461485	-455.2872338902212	7126.033235661821	1305.1328716787066	-406.72156702826703	7098.1894854323145	1385.1842401040376	-270.5750736418687	7208.184693489257	1227.18333890631	-453.454840925135	7314.512299362384	1273.2152509242671	-522.1871211014678	7461.183641356091	1064.3113583679942	-597.9584936277668	7628.797180424467	1053.855389739486	-764.2573097024323	7643.38370471184	1078.6454955541128	-773.2459004035145	7646.293055008408	1093.229602914324	-801.9656252918978	7649.595180388184	1100.2648752393447	-823.0567367761162	7653.439650848984	1103.4598538112973	-841.5725416086598	7651.218241540303	1070.1097608097618	-776.5137257684305	7681.89287919972	1081.7370703863903	-805.6435388093366	7692.9733269677645	1087.8087720514577	-833.7494864192187	7690.8072573281215	1092.1150714398761	-852.3744621749718	7682.906677521146	1096.037924939737	-868.5670829587626	7653.133288694717	1061.120165140012	-778.8387274935928	7684.091187071541	1067.5991940316378	-808.5064317565253	7696.322523242181	1072.998230089883	-839.3976876245121	7693.776574436647	1077.605114237261	-861.9746060133691	7685.164632165603	1081.611328882168	-879.7440758233624	7653.822188914886	1054.474725557443	-779.671370332598	7682.511909370321	1054.519583699275	-806.7874224398945	7693.266154983263	1057.9616656737574	-833.893325526556	7690.859946832471	1061.7342540339046	-855.7666607329752	7682.786026967577	1065.1830792809674	-872.5199821741996	7652.792535477021	1046.4595790613114	-780.3119607169987	7678.8799557899965	1041.5712871746816	-805.3634098369687	7687.511228283995	1042.3557898585223	-827.2333838004657	7685.765645244574	1044.153712491997	-843.2674949007842	7678.61893994896	1046.65987682734	-858.1540296912709	7156.7138481539305	1197.5647854323738	-420.0726368192426	7075.292617598454	1100.7591583304027	-372.67739771513203	7217.8617663896375	1035.5876467270705	-598.6830930917858	7469.226456319683	1060.634798849738	-573.8430034099907	7475.301599309272	1087.6635167148454	-585.6643952448939	7493.071832840774	1097.005001672497	-615.3255449591325	7503.982595187284	1101.0320077362521	-638.3464029072941	7511.825642502598	1102.2689367358116	-659.5609457936257	7468.995483829418	1082.675749530889	-594.462879051167	7470.201188485592	1101.0316458691243	-638.0542208787938	7479.661035154237	1106.2376165519604	-672.4672014808834	7491.3735416610525	1105.9146486073746	-690.7910985253914	7505.001387484485	1103.246321108896	-703.88653916225	7465.380262781334	1074.9362811907472	-599.5714235663254	7464.598336196931	1088.6559467758657	-644.8511582972749	7474.450745841675	1093.2465001750427	-682.9403253188741	7488.355854022493	1092.3336865808808	-705.3054746226452	7503.157517357265	1089.1597183915517	-719.7596986219082	7462.698471754773	1069.0642281305709	-602.0509556638021	7459.386307570597	1076.450537073179	-644.7325189282421	7467.495455664816	1079.3150526708569	-678.4096544740274	7480.6540700664345	1077.8309491216976	-700.2367089364488	7494.451021591357	1074.5605713688706	-713.9477242869295	7460.335727936994	1061.2580831500356	-603.7819240428819	7455.516554648882	1063.4419706161316	-643.9524589442475	7461.279093061889	1063.9298156956158	-671.4803341901785	7470.523449656531	1061.9737034618163	-687.672196770994	7482.541805101548	1058.5739158345461	-699.9739598376922
102	0.842	7446.805	859.65103	-201.189	7547.221231917003	867.0352441500304	-218.49149287392123	7403.097169316823	472.92072649040995	-251.66876201506835	7438.452449425663	44.333975015190425	-280.17326891732984	7354.173213902122	-29.69012314844066	-116.137908450242	7355.2733949642325	823.72577315903	-171.07371458114775	7233.732180433834	427.37822500868043	-111.39010597208348	7181.654871170657	66.50994979130967	98.40413587691465	7221.748886959627	38.99189276470946	283.83083218008807	7401.845272796303	983.8506654651436	-256.23435067853137	7351.150386963896	1052.3384531640904	-303.15059561783767	7292.975200381542	1118.6595139861206	-353.34512302845815	7229.351634131731	1172.6895814641505	-404.04549680084534	7160.664205795558	1230.8746785748745	-455.1653253219427	7126.561044771495	1305.676455271882	-406.5293761416504	7098.589018424299	1385.6524264319103	-270.34968529013497	7208.619470906622	1227.7897242237862	-453.2265381092137	7315.271331553702	1274.5287575915843	-521.6235251787244	7463.45817838052	1066.1349808154534	-597.9971199764225	7632.477430036293	1058.1143011155382	-765.6447305125855	7647.137972349651	1083.39075242277	-774.4062214378564	7650.250818194609	1098.3901280905666	-803.2243839381775	7653.714997478532	1105.6980700333004	-824.4359880595567	7657.7119652368665	1109.1062262436647	-843.0966762800686	7655.047597219931	1074.8506451121718	-777.8205394346157	7686.045544754694	1087.1089264139773	-807.1015233235848	7697.37563533728	1093.5650382253402	-835.4134374285995	7695.336643415567	1098.0448076312334	-854.1677327640089	7687.522274506015	1102.0670484677503	-870.4682481724217	7657.007883405305	1065.791548113477	-780.2863393455589	7688.305591313511	1072.848430117716	-810.1776201964965	7700.814288710422	1078.6556486163392	-841.3118399982495	7698.42403035743	1083.466402144557	-864.0535178027847	7689.907573410777	1087.5787316758488	-881.9452928058763	7657.720441628952	1059.081477227316	-781.2139449012099	7686.735081014077	1059.5897783703483	-808.6108886388091	7697.735601491455	1063.3751817106581	-835.9468309731069	7695.481972523923	1067.337805410902	-857.9887926544668	7687.498971777402	1070.8832716158377	-874.8617097786423	7656.7091063028365	1050.9690474022666	-781.9647539355453	7683.105759886789	1046.4479736342573	-807.3396403638867	7691.939884324329	1047.4859436430384	-829.4211058553682	7690.308323426391	1049.4121019062093	-845.591412336174	7683.243729006795	1051.9979023806334	-860.5914853280278	7157.015845713433	1197.8903166444009	-420.0396186261186	7075.2423736668325	1100.6906667374824	-373.23208970057834	7218.367612582614	1036.8466980708745	-599.9340344410524	7470.559413498061	1064.0253837844145	-574.6930923556982	7477.021419217258	1091.4064740209665	-586.4544096260909	7495.0543916261395	1100.9312399505611	-616.0656127111184	7506.099057926207	1105.086723485211	-639.074028811484	7514.01175929356	1106.431477695684	-660.2973116644706	7470.577072596119	1086.4781241496628	-595.3333570461346	7471.971373929615	1105.3622030291017	-639.0132181401813	7481.550883743141	1110.8071424184016	-673.4563439854388	7493.356762924104	1110.5204857399008	-691.7566488402744	7507.074694650877	1107.8064931971624	-704.8040069523227	7466.821281346742	1078.716445987037	-600.4980894044571	7466.1472751364945	1092.9393083436235	-645.8945641831123	7476.111086902254	1097.7858197611672	-684.0237131246721	7490.119644751277	1096.9145085249843	-706.3638002360444	7505.015405410408	1093.6894534494772	-720.767066556629	7464.035199170519	1072.8166396507922	-603.0155424011459	7460.728736323732	1080.6339653692373	-645.8360594746833	7468.915216765965	1083.7158556747343	-679.5550981843458	7482.163119644077	1082.2687469004663	-701.3617245540014	7496.043572140894	1078.9488950557463	-715.0266021219868	7461.54809503292	1064.952048112431	-604.7838468478388	7456.656988439101	1067.5001525879857	-645.1064963899294	7462.450590631583	1068.1512504572975	-672.6783228360797	7471.745146079121	1066.2168918451748	-688.8603143256919	7483.828878239214	1062.7702679825331	-701.1241011846969
103	0.85	7446.805	859.65103	-201.189	7547.284430719076	867.1468820499307	-218.2929346300147	7403.193134548272	472.9531408573711	-250.9724791583331	7438.9245402351	44.38353293324419	-279.096259451841	7354.7551295920475	-29.613887925118814	-115.00280696810597	7355.1951123613	823.6014612556716	-171.28831980153612	7233.5811854017575	427.30630609345343	-111.42641646338774	7181.428053082218	66.72860444895802	98.97652136592663	7221.761350543241	39.419503142719165	284.40106679925515	7401.907594207329	983.899348275744	-256.1764994463851	7351.2780598911595	1052.468470408453	-303.05471842961646	7293.183976480743	1118.8957355744606	-353.2195777466536	7229.656029369796	1173.0623771602889	-403.9176741655885	7161.0686120312	1231.3891872909887	-455.0396022189369	7127.080289017182	1306.2137011822374	-406.3368519660195	7098.982631585	1386.117939371432	-270.1266659171163	7209.04634647804	1228.3856340543493	-452.99703810586624	7315.999974179551	1275.8052259389026	-521.0595353663692	7465.65769450235	1067.923396121876	-597.994775158061	7636.030156292415	1062.2985821077932	-766.9434997615863	7650.758908309969	1088.0524972598137	-775.4793540852291	7654.069994098909	1103.460833103287	-804.3887622510815	7657.692402286655	1111.0374814618156	-825.7148183605669	7661.838537454288	1114.655879028842	-844.5144711412726	7658.74227479303	1079.508471434721	-779.0371421308795	7690.052947372726	1092.3876155872972	-808.460732159784	7701.626500872864	1099.2225541930184	-836.9697507721231	7699.712351434966	1103.8735534578964	-855.8477687826323	7691.983427159385	1107.9941578069825	-872.2514872994676	7660.747776034085	1070.3814628815674	-781.641093048754	7692.374956041323	1078.0071976021225	-811.7461656959849	7705.154303819815	1084.2167503637127	-843.1133541073509	7702.917054864453	1089.2287878736684	-866.0128828471728	7694.495252432217	1093.4461690525438	-884.0217538263239	7661.484230202199	1063.608127890113	-782.6620306598223	7690.814686109335	1064.5729519250563	-810.3297428480375	7702.055682086667	1068.696843447507	-837.8866953368736	7699.952072680082	1072.8471489252702	-860.0904513011379	7692.059222425933	1076.4883228437056	-877.0779863238943	7660.491913845738	1055.4003931838365	-783.5212615133287	7687.189829586006	1051.2413601180697	-809.2092603345203	7696.222279603428	1052.5293695391667	-831.4945364217083	7694.702930712129	1054.5822606996023	-847.7958368010729	7687.71979901719	1057.2469937502708	-862.9049129956074	7157.3205912881285	1198.217607415831	-420.00271285235436	7075.214881720569	1100.6473645507792	-373.7706443728274	7218.865284324391	1038.0947398914207	-601.1232447047039	7471.832628199884	1067.3542355020365	-575.4888117199046	7478.674477284228	1095.0791586986336	-587.1868984888881	7496.963337929507	1104.7818119117746	-616.7447568901121	7508.13826567522	1109.0621471839358	-639.7380137578514	7516.1185497073175	1110.5118155694495	-660.9674709573649	7472.095559802589	1090.2094785686945	-596.1446028912119	7473.676384088676	1109.6099001030066	-639.9049382579207	7483.372726634015	1115.2878745082357	-674.3734596582095	7495.268699157945	1115.035918213226	-692.6485955379331	7509.072977425663	1112.276329036631	-705.6474942388384	7468.202273326383	1082.426467026778	-601.3648888436364	7467.635828492479	1097.1414512965673	-646.8699135178002	7477.708364566401	1102.237602824498	-685.0338049918213	7491.816612783405	1101.4059257878473	-707.3469004537171	7506.802475040279	1098.1298952935028	-721.698783529146	7465.314146438404	1076.499803841284	-603.9200074240471	7462.01507485176	1084.73892631779	-646.871880049012	7470.276973790004	1088.0328627460492	-680.6282105172639	7483.610762117058	1086.6210413601661	-702.412523924793	7497.571064323294	1083.2518650626898	-716.0308523162233	7462.705165378987	1068.5783382139807	-605.7256853282001	7457.745276434693	1071.4830851485347	-646.1934588950011	7463.569057806649	1072.2934871636944	-673.8055073335562	7472.911643355234	1070.3797907665398	-689.9762352132591	7485.05769818977	1066.8865518341058	-702.2016712567422
104	0.858	7446.805	859.65103	-201.189	7547.333337720853	867.2497015469893	-218.10412972161168	7403.285432830333	472.97663391234545	-250.29372835161436	7439.401891192104	44.43700291947763	-278.064515084373	7355.354485778716	-29.53903241555323	-113.91858395150214	7355.131062334987	823.4862879848487	-171.4925621491747	7233.444115425363	427.24437798063497	-111.44940778338156	7181.21142319843	66.9468500592469	99.53532977222812	7221.7845306889085	39.83520103412007	284.95374880001043	7401.971030453712	983.9471724438076	-256.12069692885893	7351.406249041019	1052.5969020263242	-302.9606267602424	7293.392153867447	1119.12917709485	-353.0949087595633	7229.958582762593	1173.431489627033	-403.78857468968454	7161.469741842907	1231.8988996925536	-454.9100040837994	7127.590908707561	1306.7446117695017	-406.1440020473217	7099.370351709821	1386.5808382337545	-269.9060585822207	7209.465278054949	1228.9709917428768	-452.7663333567604	7316.697889167112	1277.0441797177318	-520.4952666818931	7467.781016985175	1069.6759551237126	-597.9511474785007	7639.4532651459685	1066.406302289153	-768.1526633698122	7654.244472616253	1092.628575629444	-776.4644670640395	7657.748500556057	1108.4393512766449	-805.4579174831657	7661.5252582192015	1116.280597921126	-826.8923512978072	7665.817164105758	1120.1061822033332	-845.8249998297124	7662.30015131282	1084.0810708327976	-780.1626286917519	7693.912818982948	1097.5706335813013	-809.7202103432635	7705.723544582859	1104.7786050264017	-838.4174005192531	7703.93195965019	1109.598499250203	-857.413505023912	7696.287696048343	1113.8163892816947	-873.9157058865151	7664.35078008733	1074.8877610784675	-782.9020136849748	7696.2969188418265	1083.073032123671	-813.2110070354372	7709.3400771940305	1089.6788449926446	-844.801082217815	7707.25310120812	1094.8894686218428	-867.8515016662092	7698.925101267761	1099.210780011006	-885.9722252835082	7665.11132685652	1068.0525519980085	-784.0146048719153	7694.748303112661	1069.4667146110226	-811.9428440367141	7706.223854997181	1073.9240685859488	-839.7116930262113	7704.2676479626625	1078.259596144782	-862.0703563063912	7696.464157660957	1081.9954909228532	-879.167497057375	7664.1386876726965	1059.7515290739557	-784.9804055394443	7691.129690082721	1055.9491394815043	-810.9710499489205	7700.355831682167	1057.4836142645245	-833.4523742189139	7698.946837178234	1059.6616620673922	-849.8794204020138	7692.044497481904	1062.4045788821152	-865.0929305073653	7157.628190376826	1198.5467633578846	-419.96183509411713	7075.210536918684	1100.6296556495265	-374.2927168572702	7219.354675977847	1039.3314693174584	-602.2497951228665	7473.045332712407	1070.6198738813619	-576.2295411586293	7480.25980467039	1098.6799572491702	-587.8613349111433	7498.797583952933	1108.5550169220453	-617.3624646736607	7510.099072033684	1112.9565093682036	-640.3378330157066	7518.1448392252105	1114.508116540938	-661.5708704270684	7473.550041657474	1093.86814773566	-596.8960223833222	7475.315211799968	1113.7728029483071	-640.7287375802841	7485.125502843675	1119.6777453920972	-675.2178595700475	7497.108254139004	1119.4588528782674	-693.466237111724	7510.995109215943	1116.653752735906	-706.4162996082262	7469.522405316206	1086.0646690249976	-602.1711697907001	7469.063100102763	1101.2604323369796	-647.7764746677582	7479.241633588652	1106.5997602149287	-685.9698123884136	7493.445774985691	1105.8058179929594	-708.253967974515	7508.517712134268	1102.4789423346429	-722.5540405924922	7466.5345324748	1080.112044399604	-604.7636589603012	7463.244531110462	1088.76350062427	-647.8391830291012	7471.579901869458	1092.2640274753708	-681.6281367264496	7484.9961413604415	1090.885755976815	-703.3882301985008	7499.032615391119	1087.4674225335464	-716.9595945765336	7463.806221551355	1072.1352889341342	-606.6067037393208	7458.780730216904	1075.3888858854916	-647.2124863656893	7464.633795468397	1076.3545426947694	-674.8609705579404	7474.022227105214	1074.4603956631588	-691.019020725919	7486.22753132878	1070.9207787783166	-703.2057251538233
